<svg xmlns="http://www.w3.org/2000/svg" viewBox="0 0 64 64"><rect width="64" height="64" fill="#0B0E14"/><line x1="32.0" y1="15.0" x2="32.0" y2="6.0" stroke="#C9A227" stroke-width="2.4"/><line x1="35.1" y1="12.2" x2="36.1" y2="6.3" stroke="#C9A227" stroke-width="1.2"/><line x1="38.2" y1="13.0" x2="40.0" y2="7.3" stroke="#C9A227" stroke-width="1.2"/><line x1="41.1" y1="14.2" x2="43.8" y2="8.8" stroke="#C9A227" stroke-width="1.2"/><line x1="43.8" y1="15.8" x2="47.3" y2="11.0" stroke="#C9A227" stroke-width="1.2"/><line x1="46.1" y1="17.9" x2="50.4" y2="13.6" stroke="#C9A227" stroke-width="1.2"/><line x1="48.2" y1="20.2" x2="53.0" y2="16.7" stroke="#C9A227" stroke-width="1.2"/><line x1="49.8" y1="22.9" x2="55.2" y2="20.2" stroke="#C9A227" stroke-width="1.2"/><line x1="51.0" y1="25.8" x2="56.7" y2="24.0" stroke="#C9A227" stroke-width="1.2"/><line x1="51.8" y1="28.9" x2="57.7" y2="27.9" stroke="#C9A227" stroke-width="1.2"/><line x1="49.0" y1="32.0" x2="58.0" y2="32.0" stroke="#C9A227" stroke-width="2.4"/><line x1="51.8" y1="35.1" x2="57.7" y2="36.1" stroke="#C9A227" stroke-width="1.2"/><line x1="51.0" y1="38.2" x2="56.7" y2="40.0" stroke="#C9A227" stroke-width="1.2"/><line x1="49.8" y1="41.1" x2="55.2" y2="43.8" stroke="#C9A227" stroke-width="1.2"/><line x1="48.2" y1="43.8" x2="53.0" y2="47.3" stroke="#C9A227" stroke-width="1.2"/><line x1="46.1" y1="46.1" x2="50.4" y2="50.4" stroke="#C9A227" stroke-width="1.2"/><line x1="43.8" y1="48.2" x2="47.3" y2="53.0" stroke="#C9A227" stroke-width="1.2"/><line x1="41.1" y1="49.8" x2="43.8" y2="55.2" stroke="#C9A227" stroke-width="1.2"/><line x1="38.2" y1="51.0" x2="40.0" y2="56.7" stroke="#C9A227" stroke-width="1.2"/><line x1="35.1" y1="51.8" x2="36.1" y2="57.7" stroke="#C9A227" stroke-width="1.2"/><line x1="32.0" y1="49.0" x2="32.0" y2="58.0" stroke="#C9A227" stroke-width="2.4"/><line x1="28.9" y1="51.8" x2="27.9" y2="57.7" stroke="#C9A227" stroke-width="1.2"/><line x1="25.8" y1="51.0" x2="24.0" y2="56.7" stroke="#C9A227" stroke-width="1.2"/><line x1="22.9" y1="49.8" x2="20.2" y2="55.2" stroke="#C9A227" stroke-width="1.2"/><line x1="20.2" y1="48.2" x2="16.7" y2="53.0" stroke="#C9A227" stroke-width="1.2"/><line x1="17.9" y1="46.1" x2="13.6" y2="50.4" stroke="#C9A227" stroke-width="1.2"/><line x1="15.8" y1="43.8" x2="11.0" y2="47.3" stroke="#C9A227" stroke-width="1.2"/><line x1="14.2" y1="41.1" x2="8.8" y2="43.8" stroke="#C9A227" stroke-width="1.2"/><line x1="13.0" y1="38.2" x2="7.3" y2="40.0" stroke="#C9A227" stroke-width="1.2"/><line x1="12.2" y1="35.1" x2="6.3" y2="36.1" stroke="#C9A227" stroke-width="1.2"/><line x1="15.0" y1="32.0" x2="6.0" y2="32.0" stroke="#C9A227" stroke-width="2.4"/><line x1="12.2" y1="28.9" x2="6.3" y2="27.9" stroke="#C9A227" stroke-width="1.2"/><line x1="13.0" y1="25.8" x2="7.3" y2="24.0" stroke="#C9A227" stroke-width="1.2"/><line x1="14.2" y1="22.9" x2="8.8" y2="20.2" stroke="#C9A227" stroke-width="1.2"/><line x1="15.8" y1="20.2" x2="11.0" y2="16.7" stroke="#C9A227" stroke-width="1.2"/><line x1="17.9" y1="17.9" x2="13.6" y2="13.6" stroke="#C9A227" stroke-width="1.2"/><line x1="20.2" y1="15.8" x2="16.7" y2="11.0" stroke="#C9A227" stroke-width="1.2"/><line x1="22.9" y1="14.2" x2="20.2" y2="8.8" stroke="#C9A227" stroke-width="1.2"/><line x1="25.8" y1="13.0" x2="24.0" y2="7.3" stroke="#C9A227" stroke-width="1.2"/><line x1="28.9" y1="12.2" x2="27.9" y2="6.3" stroke="#C9A227" stroke-width="1.2"/><circle cx="32" cy="32" r="5.5" fill="#C9A227"/></svg>